<?xml version="1.0" encoding="utf-8"?>
<!-- Generator: Adobe Illustrator 24.0.3, SVG Export Plug-In . SVG Version: 6.00 Build 0)  -->
<svg version="1.1" id="레이어_1" xmlns="http://www.w3.org/2000/svg" xmlns:xlink="http://www.w3.org/1999/xlink" x="0px"
	 y="0px" viewBox="0 0 2048 2048" style="enable-background:new 0 0 2048 2048;" xml:space="preserve">
<path d="M1236.8,352.4C1236.8,352.4,1251.9,353.1,1236.8,352.4c-151.3-6.9-329.9-149.5-330.8-312.1c-0.1,0-0.2,0-0.4,0v1938
	c0.1,0,0.2,0,0.4,0c0-1,0-2,0-3c0-172.6,165.4-316.6,329-316.6c8.9,0-8.2,0,0,0c307.1,0,303.1-172.6,303.1-385.6V733.4
	C1538,521.5,1535,352.4,1236.8,352.4z"/>
</svg>
